# xmcd
#
# Track frame offsets: 
#        150
#        12553
#        25371
#        35815
#        57076
#        68139
#        82069
#        92406
#        104299
#        120065
#        132679
#        154414
#        167654
#        184837
#        195953
#        206926
#        224318
#        239435
#        251596
#        264067
#
# Disc length: 3749 seconds
#
# Revision: 1
# Processed by: cddbd v1.5.2PL0 Copyright (c) Steve Scherf et al.
# Submitted via: ExactAudioCopy v1.1
#
DISCID=1a0ea314
DTITLE=The Spencer Davis Group - The Second Album
DYEAR=1966
DGENRE=R&B
TTITLE0=Look Away (mono)
TTITLE1=Keep On Running (mono)
TTITLE2=This Hammer (mono)
TTITLE3=Georgia On My Mind (mono)
TTITLE4=Please Do Something (mono)
TTITLE5=Let Me Down Easy (mono)
TTITLE6=Strong Love (mono)
TTITLE7=I Washed My Hands In Muddy Water (mono)
TTITLE8=Since I Met You Baby (mono)
TTITLE9=You Must Believe Me (mono)
TTITLE10=Hey Darling (mono)
TTITLE11=Watch Your Step (mono)
TTITLE12=Stevie's Blues (mono)
TTITLE13=Trampoline (mono)
TTITLE14=Back Into My Life Again (mono)
TTITLE15=Kansas City (mono)
TTITLE16=Oh! Pretty Woman (mono)
TTITLE17=Det War In Schoneberg (mono)
TTITLE18=Stevie's Groove (mono)
TTITLE19=Stevie's Blues (US version) (mono)
EXTD=
EXTT0=
EXTT1=
EXTT2=
EXTT3=
EXTT4=
EXTT5=
EXTT6=
EXTT7=
EXTT8=
EXTT9=
EXTT10=
EXTT11=
EXTT12=
EXTT13=
EXTT14=
EXTT15=
EXTT16=
EXTT17=
EXTT18=
EXTT19=
PLAYORDER=
